<?xml version="1.0" encoding="UTF-8" standalone="no"?><!DOCTYPE svg PUBLIC "-//W3C//DTD SVG 1.1//EN" "http://www.w3.org/Graphics/SVG/1.1/DTD/svg11.dtd">
<svg width="100%" height="100%" viewBox="0 0 32 998" version="1.1" xmlns="http://www.w3.org/2000/svg" xmlns:xlink="http://www.w3.org/1999/xlink" xml:space="preserve" style="fill-rule:evenodd;clip-rule:evenodd;stroke-linejoin:round;stroke-miterlimit:1.41421;">
	<path d="M23.8,15.7l-13.8,-13.7l-1.8,1.8l12.3,12.2l-12.3,12.2l1.8,1.8l13.7,-13.7l-0.2,-0.3l0.3,-0.3Z" style="fill:#aaa;fill-rule:nonzero;"/>
	<path d="M27.1,44c2.1,0 2.9,1.3 2.9,3.2l0,22.3c0,1.2 -1.2,2.5 -2.6,2.5l-23,0c-1.2,0 -2.4,-1.2 -2.4,-2.6l0,-22.8c0,-1.5 0.9,-2.6 2.3,-2.6l22.8,0Zm-1,2.9l-20.2,0c-0.5,0 -0.9,0.4 -0.9,0.9l0,10.9c0.8,1 2.7,2.7 5.5,2.7c6.6,0 7.8,-7 16.5,-7.3l0,-6.3c0,-0.5 -0.4,-0.9 -0.9,-0.9l0,0Zm-15.7,2.7c1.5,0 2.8,1.3 2.8,2.8c0,1.5 -1.2,2.8 -2.8,2.8c-1.5,0 -2.8,-1.3 -2.8,-2.8c0,-1.5 1.3,-2.8 2.8,-2.8Z" style="fill:#fff;fill-rule:nonzero;"/>
	<path d="M2,92.6l28,0l-14.8,14.8l-13.2,-14.8Z" style="fill:#ccc;fill-rule:nonzero;"/>
	<path d="M30,149.4l-28,0l14.8,-14.8l13.2,14.8Z" style="fill:#00ae66;fill-rule:nonzero;"/>
	<path d="M16.1,191c-0.2,0 -0.5,-0.1 -0.6,-0.2l-14.1,-12c-0.4,-0.4 -0.5,-1 -0.1,-1.4c0.4,-0.4 1,-0.5 1.4,-0.1l13.4,11.4l13.3,-11.4c0.4,-0.4 1,-0.3 1.4,0.1c0.4,0.4 0.3,1 -0.1,1.4l-13.9,12c-0.3,0.1 -0.5,0.2 -0.7,0.2l0,0Z" style="fill:#fff;fill-rule:nonzero;"/>
	<path d="M23.5,233l6.3,6.3l-1.4,1.4l-6.3,-6.3l1.4,-1.4Zm-8.6,4.3c-6.8,0 -12.4,-5.6 -12.4,-12.4c0,-6.8 5.6,-12.4 12.4,-12.4c6.8,0 12.4,5.6 12.4,12.4c0,6.8 -5.6,12.4 -12.4,12.4Zm0,-22.8c-5.7,0 -10.4,4.7 -10.4,10.4c0,5.7 4.7,10.4 10.4,10.4c5.7,0 10.4,-4.7 10.4,-10.4c0,-5.8 -4.7,-10.4 -10.4,-10.4Z" style="fill:#999;fill-rule:nonzero;"/>
	<path d="M16.5,283.9c-5.8,0 -10.6,-0.8 -13.3,-2.2c-0.5,-0.3 -0.9,-0.7 -1.2,-1.1c-0.3,-0.6 -0.3,-1.2 -0.3,-1.5c0,-0.1 0,-0.1 0,-0.2c0,-3 3.9,-6.7 8.6,-8.2c-1,-1.3 -1.5,-2.9 -1.5,-4.8l0,-5.3c0,-2.1 0.7,-4 2,-5.5c1.4,-1.5 3.2,-2.3 5.3,-2.3c4.6,0 7,3.9 7,7.8l0,5.3c0,2 -0.3,3.5 -1.1,4.7c4.9,1.4 8.2,5.3 8.2,8.3l0,0.1c0.1,1.2 -0.4,2.2 -1.5,2.7c-2.7,1.4 -6.8,2.2 -12.2,2.2l0,0Zm-11.8,-4.8c2.3,1.1 6.8,1.8 11.8,1.8c4.8,0 8.4,-0.6 10.8,-1.7c0,-0.1 0,-0.1 0,-0.2c0,-1.4 -2.3,-4.6 -6.6,-5.6l-4.1,-0.9l2.8,-3.1c0.4,-0.4 0.8,-1.2 0.8,-3.4l0,-5.3c0,-1.8 -0.8,-4.8 -4,-4.8c-1.2,0 -2.3,0.5 -3.1,1.3c-0.8,0.9 -1.2,2.1 -1.2,3.5l0,5.3c0,1.4 0.4,2.6 1.2,3.4l2.9,3l-4.1,1c-4.2,1.1 -7.1,4.2 -7.1,5.5c-0.1,0.1 -0.1,0.2 -0.1,0.2l0,0Z" style="fill:#fff;fill-rule:nonzero;"/>
	<path d="M16,320.4c-0.8,0 -1.5,-0.7 -1.5,-1.5l0,-22.6c0,-0.8 0.7,-1.5 1.5,-1.5c0.8,0 1.5,0.7 1.5,1.5l0,22.6c0,0.9 -0.7,1.5 -1.5,1.5Z" style="fill:#fff;fill-rule:nonzero;"/>
	<path d="M16,321.3c-0.3,0 -0.5,-0.1 -0.7,-0.2c-0.1,-0.1 -0.3,-0.2 -0.4,-0.3l-9.7,-9.7c-0.6,-0.6 -0.6,-1.5 0,-2.1c0.6,-0.6 1.5,-0.6 2.1,0l8.7,8.7l8.6,-8.6c0.6,-0.6 1.5,-0.6 2.1,0c0.6,0.6 0.6,1.5 0,2.1l-9.7,9.7c-0.2,0.3 -0.6,0.4 -1,0.4l0,0Zm14,4.6l-28,0c-0.8,0 -1.5,-0.7 -1.5,-1.5c0,-0.8 0.7,-1.5 1.5,-1.5l28,0c0.8,0 1.5,0.7 1.5,1.5c0,0.9 -0.7,1.5 -1.5,1.5Z" style="fill:#fff;fill-rule:nonzero;"/>
	<path d="M16,404.4c-0.8,0 -1.5,-0.7 -1.5,-1.5l0,-22.6c0,-0.8 0.7,-1.5 1.5,-1.5c0.8,0 1.5,0.7 1.5,1.5l0,22.6c0,0.9 -0.7,1.5 -1.5,1.5Z" style="fill:#00ae66;fill-rule:nonzero;"/>
	<path d="M16,405.3c-0.3,0 -0.5,-0.1 -0.7,-0.2c-0.1,-0.1 -0.3,-0.2 -0.4,-0.3l-9.7,-9.7c-0.6,-0.6 -0.6,-1.5 0,-2.1c0.6,-0.6 1.5,-0.6 2.1,0l8.7,8.7l8.6,-8.6c0.6,-0.6 1.5,-0.6 2.1,0c0.6,0.6 0.6,1.5 0,2.1l-9.7,9.7c-0.2,0.3 -0.6,0.4 -1,0.4l0,0Zm14,4.6l-28,0c-0.8,0 -1.5,-0.7 -1.5,-1.5c0,-0.8 0.7,-1.5 1.5,-1.5l28,0c0.8,0 1.5,0.7 1.5,1.5c0,0.9 -0.7,1.5 -1.5,1.5Z" style="fill:#00ae66;fill-rule:nonzero;"/>
	<path d="M16.1,443c-0.2,0 -0.5,-0.1 -0.6,-0.2l-14.1,-12c-0.4,-0.4 -0.5,-1 -0.1,-1.4c0.4,-0.4 1,-0.5 1.4,-0.1l13.4,11.4l13.3,-11.4c0.4,-0.4 1,-0.3 1.4,0.1c0.4,0.4 0.3,1 -0.1,1.4l-13.9,12c-0.3,0.1 -0.5,0.2 -0.7,0.2l0,0Z" style="fill:#666;fill-rule:nonzero;"/>
	<path d="M27.9,475.7l1.8,0l0,0.4l0.2,0l0,-0.4c0,-0.1 -0.1,-0.1 -0.1,-0.1l-0.9,0l0,-0.2l-0.3,0l0,0.2l-0.8,0c-0.1,0 -0.1,0.1 -0.1,0.1l0,0.4l0.2,0c0,-0.1 0,-0.4 0,-0.4l0,0Zm0.8,1.7l0.3,0c0,-0.1 0.1,-0.4 0.1,-0.7c0,-0.2 0,-0.5 -0.1,-0.7l0.6,0l0,-0.2l-1.4,0l0,0.2l0.6,0c-0.3,0.2 -0.7,0.3 -1,0.3l0,0.2c0.3,0 0.7,-0.2 1.1,-0.3c0,0.1 0,0.1 0,0.2c-0.3,0.2 -0.7,0.3 -1.1,0.4l0,0.2c0.3,0 0.7,-0.2 1.1,-0.3l0,0.2c-0.3,0.2 -0.7,0.3 -1.1,0.4l0,0.2c0.4,-0.1 0.7,-0.2 1.1,-0.3c-0.1,0 -0.2,0.1 -0.2,0.2l0,0Zm1.1,-1.2l-0.3,0l-0.3,0.3c-0.1,0.1 -0.1,0.3 0,0.4l0.5,0.6l0.3,0l-0.5,-0.7l0,-0.1l0.3,-0.5Zm-4.6,0.3l0,0.2l0.2,0l0,0.6c0,0.1 0,0.2 0.2,0.2l0.2,0l0,-0.2l-0.2,0l0,-0.6l0.2,0l0,-0.2l-0.2,0l0,-0.4l0.4,0l0,1.1c0,0.2 0,0.2 0.2,0.2l1.3,0l0,-0.2l-0.4,0l0,-0.3l0.4,0l0,-0.2l-0.4,0l0,-0.3l0.4,0l0,-0.2l-0.4,0l0,-0.3l-0.2,0l0,0.3l-0.3,0l0.1,-0.5l0.8,0l0,-0.2l-0.7,0l0,-0.2l-0.2,0l0,0.2l-0.3,0l-0.1,-0.2l-0.2,0l0.1,0.3l0.1,0.1l0.4,0l-0.1,0.6l0,0.1l0.5,0l0,0.3l-0.5,0l0,0.2l0.5,0l0,0.3l-0.6,0l0,-1.2c0,-0.1 -0.1,-0.1 -0.1,-0.1l-0.7,0l0,-0.2l0.4,0l0,-0.2l-0.4,0l0,-0.2l-0.2,0l-0.2,0.8l0.3,0l0,0.4l-0.3,0l0,0Zm-22.5,-1.2l-0.7,0l0,3.4c0,0.6 0.3,0.9 0.9,0.9l1.5,0l0,-0.6l-1.7,0l0,-3.7l0,0Zm13.8,3.7c0,1 -0.3,1 -0.9,1l0,0.7c0.9,0 1.5,-0.3 1.6,-1.5l0,-3.9l-0.7,0l0,3.7Zm-11.6,0.7l0.7,0l0,-4.4l-0.7,0l0,4.4Zm13.2,0l0.7,0l0,-4.4l-0.7,0l0,4.4Zm-4.7,-4.4c-1.1,0 -2,0.9 -2,2.1l0,2.3l0.6,0l0,-2.3c0,-0.8 0.6,-1.4 1.4,-1.4c0.8,0 1.4,0.6 1.4,1.4l0,2.3l0.7,0l0,-2.3c-0.1,-1.2 -1,-2.1 -2.1,-2.1Zm-4.9,0c-1.2,0 -2.2,1 -2.2,2.1l0,0.1c0,1.2 0.9,2.1 2.1,2.1l2.2,0l0,-3.9l-0.7,0c-0.4,-0.2 -0.9,-0.4 -1.4,-0.4l0,0Zm1.4,3.7l-1.5,0c-0.9,0 -1.4,-0.7 -1.4,-1.5l0,-0.1c0,-0.8 0.6,-1.5 1.4,-1.5l0.1,0c0.8,0 1.4,0.5 1.4,1.3c0,0.1 0,1.8 0,1.8Zm11.8,-3.7c-1.2,0 -2.2,1 -2.2,2.1l0,0.1c0,1.2 0.9,2.1 2.1,2.1l2.2,0l0,-3.9l-0.7,0c-0.4,-0.2 -0.9,-0.4 -1.4,-0.4l0,0Zm1.4,3.7l-1.5,0c-0.9,0 -1.4,-0.7 -1.4,-1.5l0,-0.1c0,-0.8 0.6,-1.5 1.4,-1.5l0.1,0c0.8,0 1.4,0.5 1.4,1.3c0,0.1 0,1.8 0,1.8Zm6.4,-0.8c-0.2,0 -0.3,0.1 -0.4,0.2c-0.1,-0.1 -0.2,-0.2 -0.4,-0.2l-0.1,0c-0.3,0 -0.5,0.2 -0.5,0.5l0,0.9l0.3,0l0,-0.9c0,-0.1 0.1,-0.2 0.2,-0.2l0.1,0c0.1,0 0.2,0.1 0.2,0.2l0,0.9l0.4,0l0,-0.9c0,-0.1 0.1,-0.2 0.2,-0.2l0.1,0c0.1,0 0.2,0.1 0.2,0.2l0,0.9l0.2,0l0,-0.9c0,-0.2 -0.2,-0.4 -0.5,-0.5Zm-2.4,0c-0.4,0 -0.7,0.3 -0.7,0.7c0,0.4 0.3,0.7 0.7,0.7c0.4,0 0.7,-0.4 0.7,-0.8c0,-0.2 -0.3,-0.5 -0.7,-0.6l0,0Zm0,1.2c-0.2,0 -0.4,-0.2 -0.4,-0.4c0,-0.2 0.2,-0.4 0.4,-0.4c0.2,0 0.4,0.2 0.4,0.4c0.1,0.2 -0.1,0.4 -0.4,0.4Zm-1.9,-0.4c0,0.4 0.3,0.7 0.7,0.7l0.5,0l0,-0.3l-0.5,0c-0.2,0 -0.3,-0.2 -0.3,-0.4c0,-0.2 0.1,-0.4 0.3,-0.4l0.5,0l0,-0.3l-0.5,0c-0.4,-0.1 -0.7,0.3 -0.7,0.7Zm-0.6,0.2c-0.1,0 -0.2,0.1 -0.2,0.2c0,0.1 0.1,0.2 0.2,0.2c0.1,0 0.2,-0.1 0.2,-0.2c0.1,0 0,-0.2 -0.2,-0.2Z" style="fill:#fff;fill-rule:nonzero;"/>
	<path d="M14.7,550.9c5.6,0 10.2,4.6 10.2,10.2c0,5.6 -4.6,10.2 -10.2,10.2c-5.6,0 -10.2,-4.6 -10.2,-10.2c0,-5.6 4.6,-10.2 10.2,-10.2Zm0,-2.5c-7,0 -12.7,5.7 -12.7,12.7c0,7 5.7,12.7 12.7,12.7c7,0 12.7,-5.7 12.7,-12.7c0,-7 -5.7,-12.7 -12.7,-12.7Zm9.5,19.9l7.2,7l-1.7,1.8l-7.2,-7l1.7,-1.8Z" style="fill:#00ae66;fill-rule:nonzero;"/>
	<path d="M30,605.5l-28,0c-0.8,0 -1.5,-0.7 -1.5,-1.5c0,-0.8 0.7,-1.5 1.5,-1.5l28,0c0.8,0 1.5,0.7 1.5,1.5c0,0.8 -0.7,1.5 -1.5,1.5Z" style="fill:#00ae66;fill-rule:nonzero;"/>
	<path d="M2,605.5c-0.8,0 -1.5,-0.7 -1.5,-1.5c0,-0.4 0.2,-0.8 0.4,-1.1l13,-13c0.6,-0.6 1.5,-0.6 2.1,0c0.6,0.6 0.6,1.5 0,2.1l-13,13c-0.2,0.3 -0.6,0.5 -1,0.5Z" style="fill:#00ae66;fill-rule:nonzero;"/>
	<path d="M15,618.5c-0.4,0 -0.8,-0.1 -1.1,-0.4l-13,-13c-0.6,-0.6 -0.6,-1.5 0,-2.1c0.6,-0.6 1.5,-0.6 2.1,0l13,13c0.6,0.6 0.6,1.5 0,2.1c-0.2,0.2 -0.6,0.4 -1,0.4Z" style="fill:#00ae66;fill-rule:nonzero;"/>
	<path d="M10.8,659.8l-2,0l0,-23.1l-6.1,5.4l-1.3,-1.5l9.4,-8.2l0,27.4Zm10.6,0.3l0,-27.5l2,0l0,23.1l6.1,-5.4l1.3,1.5l-9.4,8.3Z" style="fill:#fff;fill-rule:nonzero;"/>
	<path d="M16,698.4c-0.8,0 -1.5,-0.7 -1.5,-1.5l0,-22.6c0,-0.8 0.7,-1.5 1.5,-1.5c0.8,0 1.5,0.7 1.5,1.5l0,22.6c0,0.9 -0.7,1.5 -1.5,1.5Z" style="fill:#444;fill-rule:nonzero;"/>
	<path d="M16,699.3c-0.3,0 -0.5,-0.1 -0.7,-0.2c-0.1,-0.1 -0.3,-0.2 -0.4,-0.3l-9.7,-9.7c-0.6,-0.6 -0.6,-1.5 0,-2.1c0.6,-0.6 1.5,-0.6 2.1,0l8.7,8.7l8.6,-8.6c0.6,-0.6 1.5,-0.6 2.1,0c0.6,0.6 0.6,1.5 0,2.1l-9.7,9.7c-0.2,0.3 -0.6,0.4 -1,0.4l0,0Zm14,4.6l-28,0c-0.8,0 -1.5,-0.7 -1.5,-1.5c0,-0.8 0.7,-1.5 1.5,-1.5l28,0c0.8,0 1.5,0.7 1.5,1.5c0,0.8 -0.7,1.5 -1.5,1.5Z" style="fill:#444;fill-rule:nonzero;"/>
	<path d="M16.5,787.9c-5.8,0 -10.6,-0.8 -13.3,-2.2c-0.5,-0.3 -0.9,-0.7 -1.2,-1.1c-0.3,-0.6 -0.3,-1.2 -0.3,-1.5c0,-0.1 0,-0.1 0,-0.2c0,-3 3.9,-6.7 8.6,-8.2c-1,-1.3 -1.5,-2.9 -1.5,-4.8l0,-5.3c0,-2.1 0.7,-4 2,-5.5c1.4,-1.5 3.2,-2.3 5.3,-2.3c4.6,0 7,3.9 7,7.8l0,5.3c0,2 -0.3,3.5 -1.1,4.7c4.9,1.4 8.2,5.3 8.2,8.3l0,0.1c0.1,1.2 -0.4,2.2 -1.5,2.7c-2.7,1.4 -6.8,2.2 -12.2,2.2l0,0Zm-11.8,-4.8c2.3,1.1 6.8,1.8 11.8,1.8c4.8,0 8.4,-0.6 10.8,-1.7c0,-0.1 0,-0.1 0,-0.2c0,-1.4 -2.3,-4.6 -6.6,-5.6l-4.1,-0.9l2.8,-3.1c0.4,-0.4 0.8,-1.2 0.8,-3.4l0,-5.3c0,-1.8 -0.8,-4.8 -4,-4.8c-1.2,0 -2.3,0.5 -3.1,1.3c-0.8,0.9 -1.2,2.1 -1.2,3.5l0,5.3c0,1.4 0.4,2.6 1.2,3.4l2.9,3l-4.1,1c-4.2,1.1 -7.1,4.2 -7.1,5.5c-0.1,0.1 -0.1,0.2 -0.1,0.2l0,0Z" style="fill:#444;fill-rule:nonzero;"/>
	<path d="M27.9,811.7l1.8,0l0,0.4l0.2,0l0,-0.4c0,-0.1 -0.1,-0.1 -0.1,-0.1l-0.9,0l0,-0.2l-0.3,0l0,0.2l-0.7,0.1c-0.2,-0.1 -0.2,0 -0.2,0l0,0.4l0.2,0c0,-0.1 0,-0.4 0,-0.4Zm1.5,1l0.4,-0.5l-0.3,0l-0.3,0.3c-0.1,0.1 -0.1,0.3 0,0.4l0.5,0.6l0.3,0c0,-0.1 -0.6,-0.8 -0.6,-0.8l0,0Zm0.1,-0.7l0,-0.2l-1.4,0l0,0.2l0.6,0c-0.3,0.2 -0.8,0.3 -1,0.3l0,0.2c0.3,0 0.7,-0.2 1.1,-0.3c0,0.1 0,0.1 0,0.2c-0.3,0.2 -0.7,0.3 -1.1,0.4l0,0.2c0.3,0 0.7,-0.2 1.1,-0.3l0,0.2c-0.3,0.2 -0.7,0.3 -1.1,0.4l0,0.2c0.4,-0.1 0.7,-0.2 1.1,-0.3c0,0.1 0,0.3 -0.1,0.3l0.3,0c0,-0.1 0.1,-0.4 0.1,-0.7c0,-0.2 0,-0.5 -0.1,-0.7c-0.1,-0.1 0.5,-0.1 0.5,-0.1l0,0Zm-2.7,-0.7l-0.2,0l0,0.2l-0.3,0l-0.1,-0.2l-0.2,0l0.1,0.3l0.1,0.1l0.4,0l-0.1,0.6l0,0.1l0.5,0l0,0.3l-0.5,0l0,0.2l0.5,0l0,0.3l-0.6,0l0,-1.2c0,-0.1 -0.1,-0.1 -0.1,-0.1l-0.7,0l0,-0.2l0.4,0l0,-0.2l-0.4,0l0,-0.2l-0.2,0l-0.2,0.8l0.3,0l0,0.4l-0.2,0l0,0.2l0.2,0l0,0.6c0,0.1 0,0.2 0.2,0.2l0.2,0l0,-0.2l-0.2,0l0,-0.6l0.2,0l0,-0.2l-0.2,0l0,-0.4l0.3,0l0,1.1c0,0.2 0,0.2 0.2,0.2l1.3,0l0,-0.2l-0.4,0l0,-0.3l0.4,0l0,-0.2l-0.4,0l0,-0.3l0.4,0l0,-0.2l-0.4,0l0,-0.3l-0.2,0l0,0.3l-0.3,0l0.1,-0.5l0.8,0l0,-0.2l-0.7,0c-0.1,0 0,-0.2 0,-0.2l0,0Zm-24.1,0l-0.7,0l0,3.4c0,0.6 0.3,0.9 0.9,0.9l1.5,0l0,-0.6l-1.7,0l0,-3.7l0,0Zm13.8,3.7c0,1 -0.3,1.1 -0.9,1.1l0,0.7c0.9,0 1.5,-0.3 1.6,-1.5l0,-3.9l-0.7,0l0,3.6Zm-11.6,0.7l0.7,0l0,-4.4l-0.7,0l0,4.4Zm13.2,0l0.7,0l0,-4.4l-0.7,0l0,4.4Zm-4.7,-4.4c-1.1,0 -2,0.9 -2,2.1l0,2.3l0.6,0l0,-2.3c0,-0.8 0.6,-1.4 1.4,-1.4c0.7,0 1.4,0.6 1.4,1.4l0,2.3l0.7,0l0,-2.3c-0.1,-1.2 -1,-2.1 -2.1,-2.1Zm-4.9,0c-1.2,0 -2.2,1 -2.2,2.1l0,0.1c0,1.2 0.9,2.1 2.1,2.1l2.2,0l0,-3.9l-0.7,0c-0.4,-0.2 -0.9,-0.4 -1.4,-0.4l0,0Zm1.4,3.7l-1.5,0c-0.9,0 -1.4,-0.7 -1.4,-1.5l0,-0.1c0,-0.8 0.6,-1.5 1.4,-1.5l0.1,0c0.8,0 1.4,0.5 1.4,1.3l0,1.8Zm13.2,-3.2c-0.4,-0.3 -0.9,-0.5 -1.4,-0.5l-0.1,0c-1.1,0 -2.1,1 -2.1,2.1l0,0.1c0,1.2 0.9,2.1 2.1,2.1l2.2,0l0,-3.9l-0.7,0.1l0,0Zm0,3.2l-1.5,0c-0.9,0 -1.4,-0.7 -1.4,-1.5l0,-0.1c0,-0.8 0.6,-1.5 1.4,-1.5l0.1,0c0.8,0 1.4,0.5 1.4,1.3l0,1.8Zm6.1,0.7l-0.3,0l0,-0.9c0,-0.1 -0.1,-0.2 -0.2,-0.2l-0.1,0c-0.1,0 -0.2,0.1 -0.2,0.2l0,0.9l-0.4,0l0,-0.9c0,-0.3 0.2,-0.5 0.5,-0.5l0.1,0c0.3,0 0.5,0.2 0.5,0.5l0.1,0.9Z" style="fill:#22bae0;fill-rule:nonzero;"/>
	<path d="M30,815.7l-0.3,0l0,-0.9c0,-0.1 -0.1,-0.2 -0.2,-0.2l-0.1,0c-0.1,0 -0.2,0.1 -0.2,0.2l0,0.9l-0.3,0l0,-0.9c0,-0.3 0.2,-0.5 0.5,-0.5l0.1,0c0.3,0 0.5,0.2 0.5,0.5l0,0.9Zm-2.9,0c-0.4,0 -0.7,-0.4 -0.7,-0.8c0,-0.4 0.3,-0.7 0.7,-0.7c0.4,0 0.7,0.4 0.7,0.8c0,0.4 -0.3,0.7 -0.7,0.7Zm0,-1.1c-0.2,0 -0.4,0.2 -0.4,0.4c0,0.2 0.2,0.4 0.4,0.4c0.2,0 0.4,-0.2 0.4,-0.4c0.1,-0.2 -0.1,-0.4 -0.4,-0.4Zm-0.7,1.1l-0.5,0c-0.4,0 -0.7,-0.3 -0.7,-0.7c0,-0.4 0.3,-0.7 0.7,-0.7l0.5,0l0,0.3l-0.5,0c-0.2,0 -0.3,0.2 -0.3,0.4c0,0.2 0.1,0.4 0.3,0.4l0.5,0l0,0.3Zm-1.5,-0.2c0,0.1 -0.1,0.2 -0.2,0.2c-0.1,0 -0.2,-0.1 -0.2,-0.2c0,-0.1 0.1,-0.2 0.2,-0.2c0.1,-0.1 0.2,0.1 0.2,0.2Z" style="fill:#22bae0;fill-rule:nonzero;"/>
	<path d="M29.7,868.3l-5,-5c2.1,-2.4 3.2,-5.4 3.2,-8.6c0,-7.2 -5.8,-13 -13,-13c-7.2,0 -13,5.8 -13,13c0,7.2 5.8,13 13,13c3.1,0 5.9,-1.1 8.2,-2.9l5,5c0.4,0.4 1.1,0.4 1.5,0c0.5,-0.4 0.5,-1 0.1,-1.5Zm-25.5,-13.5c0,-6 4.8,-10.8 10.8,-10.8c6,0 10.8,4.8 10.8,10.8c0,6 -4.8,10.8 -10.8,10.8c-6,0 -10.8,-4.8 -10.8,-10.8Z" style="fill:#22bae0;fill-rule:nonzero;"/>
	<path d="M30,905.4l-28,0l14.8,-14.8l13.2,14.8Z" style="fill:#22bae0;fill-rule:nonzero;"/>
	<path d="M30,939.3l-24.3,0l7.6,-7.6l-1.4,-1.4l-10,10l9.5,9.5l1.4,-1.4l-7.2,-7.2l24.4,0l0,-1.9l0,0Z" style="fill:#22bae0;fill-rule:nonzero;"/>
	<g>
		<path d="M15.6,344.7c2.6,0 4.6,2 4.6,4.4c0,2.4 -2.1,4.4 -4.6,4.4c-2.5,0 -4.6,-2 -4.6,-4.4c0,-2.5 2,-4.4 4.6,-4.4m0,-1.7c-3.5,0 -6.3,2.7 -6.3,6.1c0,3.4 2.8,6.1 6.3,6.1c3.5,0 6.3,-2.7 6.3,-6.1c0,-3.4 -2.8,-6.1 -6.3,-6.1l0,0Z" style="fill:#00ae66;fill-rule:nonzero;"/>
		<path d="M10.3,357.4c0.2,-0.1 0.3,-0.2 0.4,-0.3c0.1,0 0.1,-0.1 0.2,-0.1c0.2,-0.1 0.4,-0.2 0.6,-0.4c0.2,-0.1 0.4,-0.2 0.7,-0.3c0.2,-0.1 0.5,-0.2 0.7,-0.3c0.2,-0.1 0.4,-0.1 0.7,-0.2l0.1,0c0.2,-0.1 0.4,-0.1 0.6,-0.1c0.1,0 0.1,0 0.2,0c0.2,0 0.4,0 0.5,-0.1l1.1,0c2.1,0 4.1,0.7 5.6,1.9c0.3,0.3 0.6,0.6 0.9,0.9c0.1,0.1 0.2,0.2 0.2,0.3c0,0 0,0.1 0.1,0.1c0.7,0.9 1.1,1.9 1.2,3.1l1.6,0c-0.2,-4.4 -4.4,-8 -9.7,-8c-5.3,0 -9.5,3.6 -9.7,8l1.5,0c0.2,-1.8 1.1,-3.3 2.5,-4.5l0,0Z" style="fill:#00ae66;fill-rule:nonzero;"/>
	</g>
	<g id="v">
		<g>
			<path d="M17.149,714.802c-0.428,-0.427 -1.113,-0.427 -1.541,0l-13.437,13.353c-0.429,0.428 -0.429,1.112 0,1.541c0.427,0.427 1.112,0.427 1.54,0l13.523,-13.267c0.343,-0.514 0.343,-1.113 -0.085,-1.626l0,-0.001Z" style="fill:#00ae66;fill-rule:nonzero;"/>
			<path d="M2.94,730.38c-0.427,0 -0.769,-0.085 -1.112,-0.428c-0.343,-0.342 -0.428,-0.685 -0.428,-1.112c0,-0.429 0.085,-0.771 0.428,-1.113l13.524,-13.267c0.513,-0.513 1.54,-0.513 2.054,0c0.342,0.342 0.427,0.685 0.427,1.113c0,0.428 -0.085,0.77 -0.427,1.113l-13.523,13.266c-0.257,0.257 -0.514,0.428 -0.943,0.428l0,0Zm13.438,-15.406c-0.256,0 -0.342,0.085 -0.427,0.257l-13.438,13.18c-0.085,0.087 -0.257,0.343 -0.257,0.429c0,0.257 0.085,0.342 0.257,0.427c0.257,0.257 0.684,0.257 0.941,0l13.524,-13.266c0.086,-0.086 0.256,-0.343 0.256,-0.428c0,-0.257 -0.085,-0.342 -0.256,-0.428c-0.257,-0.086 -0.343,-0.171 -0.6,-0.171l0,0Z" style="fill:#00ae66;fill-rule:nonzero;"/>
		</g>
		<g>
			<path d="M17.149,743.304c0.428,-0.427 0.428,-1.112 0,-1.54l-13.266,-13.438c-0.429,-0.428 -1.113,-0.428 -1.542,0c-0.427,0.428 -0.427,1.113 0,1.541l13.267,13.437c0.514,0.429 1.113,0.429 1.541,0l0,0Z" style="fill:#00ae66;fill-rule:nonzero;"/>
			<path d="M16.378,744.075c-0.427,0 -0.77,-0.085 -1.112,-0.427l-13.182,-13.439c-0.512,-0.513 -0.512,-1.541 0,-2.054c0.514,-0.513 1.542,-0.513 2.055,0l13.267,13.524c0.514,0.513 0.514,1.54 0,2.054c-0.257,0.257 -0.685,0.342 -1.028,0.342Zm-13.266,-15.664c-0.257,0 -0.342,0.087 -0.429,0.257c-0.255,0.257 -0.255,0.685 0,0.942l13.268,13.524c0.257,0.257 0.684,0.257 0.856,0c0.257,-0.257 0.257,-0.686 0,-0.942l-13.268,-13.524c-0.085,-0.085 -0.342,-0.257 -0.427,-0.257l0,0Z" style="fill:#00ae66;fill-rule:nonzero;"/>
		</g>
	</g>
	<g>
		<g>
			<circle cx="6.499" cy="520.766" r="0.414" style="fill:#159e59;"/>
			<path d="M6.503,522.333l-0.004,0.001l0.004,-0.001Z" style="fill:#159e59;fill-rule:nonzero;"/>
			<path d="M6.655,518.661l-1.782,-1.281c-0.074,-0.054 -0.247,-0.18 -0.467,-0.18c-0.22,0 -0.392,0.125 -0.465,0.179l-0.012,0.009l-1.761,1.266c-0.081,0.058 -0.268,0.224 -0.268,0.515l0,2.535c0,0.347 0.282,0.63 0.63,0.63l3.973,0c0.018,0 0.037,-0.002 0.054,-0.005c0.201,-0.029 0.355,-0.201 0.355,-0.41c0,-0.229 -0.185,-0.414 -0.414,-0.414c-0.005,0 -0.009,0.001 -0.014,0.001l-3.606,0c-0.014,0 -0.028,-0.001 -0.04,-0.004c-0.053,-0.012 -0.094,-0.054 -0.106,-0.107c-0.002,-0.009 -0.003,-0.019 -0.003,-0.029c0,-0.003 0,-0.006 0,-0.01l0,-2.015c0,-0.072 0.034,-0.11 0.093,-0.152c0.043,-0.031 0.475,-0.336 1.402,-0.989l0.084,-0.059l0.007,-0.005l0.001,-0.001l0.004,-0.003c-0.001,0.001 -0.002,0.001 -0.002,0.002l0.001,-0.001c0,0 0.002,-0.001 0.005,-0.003c0.001,-0.001 0.003,-0.002 0.005,-0.003l-0.008,0.006c0.025,-0.016 0.057,-0.027 0.088,-0.027c0.034,0 0.065,0.011 0.091,0.029l0.003,0.003c0,0 0.001,0.001 0.003,0.002c0.052,0.037 0.832,0.589 1.253,0.886l0.26,0.184c0.031,0.022 0.068,0.062 0.068,0.125l0,0.283c0,0.228 0.186,0.414 0.414,0.414c0.228,0 0.414,-0.186 0.414,-0.414l0,-0.448c-0.002,-0.203 -0.096,-0.389 -0.26,-0.509l0,0Z" style="fill:#159e59;fill-rule:nonzero;"/>
			<path d="M4.306,518.141l0.001,-0.001l-0.001,0.001Z" style="fill:#159e59;fill-rule:nonzero;"/>
		</g>
		<g>
			<path d="M18.379,522.334l-0.919,-1.255c-0.205,-0.253 -0.184,-0.631 0.047,-0.86l0.596,-0.592l0.693,0l-0.884,0.878c-0.105,0.105 -0.113,0.22 -0.021,0.333l1.108,1.497l-0.62,0l0,-0.001Zm-2.022,0l-0.018,0l-0.023,0l-0.004,0c0.036,-0.151 0.086,-0.449 0.126,-0.739l0.001,-0.009l-0.008,0.004c-0.695,0.334 -1.668,0.623 -2.397,0.735l0,-0.005l0,-0.023l0,-0.017l0,-0.366l0,-0.015l0,-0.023l0,-0.008c0.615,-0.103 1.655,-0.378 2.455,-0.814l0.002,-0.001l0,-0.003c0.004,-0.078 0.007,-0.147 0.009,-0.212c0.002,-0.079 0.002,-0.158 0.001,-0.235l0,-0.007l-0.007,0.003c-0.853,0.422 -1.883,0.676 -2.46,0.766l0,-0.005l0,-0.023l0,-0.017l0,-0.366l0,-0.015l0,-0.023l0,-0.008c0.607,-0.102 1.637,-0.373 2.433,-0.802l0.003,-0.001l0,-0.003c-0.017,-0.15 -0.04,-0.288 -0.068,-0.411l-0.001,-0.006l-0.005,0.002c-0.688,0.326 -1.647,0.608 -2.361,0.719l0,-0.005l0,-0.023l0,-0.018l0,-0.366l0,-0.014l0,-0.023l0,-0.008c0.552,-0.093 1.449,-0.31 2.19,-0.706l-1.293,0l0,-0.431l3.099,0l0,0.431l-1.25,0l0.003,0.006c0.173,0.424 0.223,1.105 0.211,1.602c-0.014,0.589 -0.097,1.149 -0.165,1.484l-0.008,0l-0.023,0l-0.014,0l-0.428,0l0,-0.001l0,0Zm2.095,-3.092l0,-0.81l-3.942,0l0,0.81l-0.475,0l0,-0.954c0,-0.158 0.129,-0.287 0.287,-0.287l1.855,0l0,-0.365l0.556,0l0,0.365l1.909,0c0.158,0 0.287,0.129 0.287,0.287l0,0.954l-0.477,0Z" style="fill:#159e59;fill-rule:nonzero;"/>
			<path d="M10.48,522.334c-0.459,0 -0.478,-0.167 -0.478,-0.543l0,-2.432l-0.81,0l0,0.844l0.5,0l0,0.431l-0.5,0l0,1.269l0.5,0l0,0.431l-0.495,0c-0.42,0 -0.488,-0.133 -0.488,-0.452l0,-1.249l-0.538,0l0,-0.431l0.538,0l0,-0.844l-0.575,0l0.383,-1.722l0.463,0l-0.088,0.408l0.8,0l0,0.431l-0.897,0l-0.1,0.452l1.522,0c0.119,0 0.258,0.094 0.258,0.216l0,2.76l1.435,0l0,-0.734l-1.107,0l0,-0.431l1.107,0l0,-0.733l-0.894,0c-0.066,0 -0.127,-0.03 -0.168,-0.081c-0.041,-0.051 -0.056,-0.118 -0.042,-0.182l0.285,-1.266l-0.877,0c-0.095,0 -0.18,-0.064 -0.207,-0.155l-0.202,-0.685l0.49,0l0.122,0.408l0.77,0l0.09,-0.408l0.477,0l-0.091,0.408l1.648,0l0,0.431l-1.745,0l-0.247,1.098l0.592,0l0,-0.707l0.526,0l0,0.707l0.875,0l0,0.431l-0.875,0l0,0.733l0.875,0l0,0.431l-0.875,0l0,0.734l0.875,0l0,0.431l-2.832,0l0,0.001Z" style="fill:#159e59;fill-rule:nonzero;"/>
		</g>
		<g>
			<rect x="20.849" y="519.396" width="0.535" height="2.945" style="fill:#159e59;"/>
			<rect x="22.766" y="517.881" width="0.535" height="4.46" style="fill:#159e59;"/>
			<rect x="23.849" y="519.176" width="0.535" height="3.165" style="fill:#159e59;"/>
			<rect x="20.835" y="517.64" width="0.563" height="0.733" style="fill:#159e59;"/>
			<path d="M20.786,519.293l-0.381,-1.144l-0.45,0.149l0.381,1.145l0.45,-0.15Z" style="fill:#159e59;"/>
			<path d="M19.682,522.34l0.442,-1.299l0.5,0l-0.441,1.299l-0.501,0Z" style="fill:#159e59;fill-rule:nonzero;"/>
			<path d="M22.533,522.34l-0.437,-1.299l-0.501,0l0.436,1.299l0.502,0Z" style="fill:#159e59;fill-rule:nonzero;"/>
			<path d="M22.288,518.298l-0.45,-0.15l-0.381,1.144l0.449,0.15l0.382,-1.144l0,0Z" style="fill:#159e59;"/>
			<rect x="19.682" y="518.003" width="2.855" height="0.44" style="fill:#159e59;"/>
			<rect x="22.797" y="517.881" width="1.771" height="0.44" style="fill:#159e59;"/>
			<rect x="22.868" y="519.176" width="1.7" height="0.44" style="fill:#159e59;"/>
			<g>
				<path d="M28.234,519.43l-0.474,0l0,0.252l-1.704,0l0,0.44l0.35,0l0,0.731c0,0.705 -0.363,1.423 -0.4,1.488l0.536,0c0.139,-0.272 0.301,-0.741 0.332,-1.299l2.504,0l0,0.858l-1.011,0l0,0.44l1.203,0c0.16,0 0.291,-0.131 0.291,-0.291l0,-0.673l0,-0.041l0,-0.441c0,-0.161 -0.131,-0.291 -0.291,-0.291l-2.69,0l0,-0.479l3.02,0l0,-0.44l-1.666,0l0,-0.254l0,0Z" style="fill:#159e59;fill-rule:nonzero;"/>
				<path d="M29.609,517.88l-1.637,0l0,-0.244l-0.563,0l0,0.244l-1.721,0c-0.16,0 -0.291,0.131 -0.291,0.291l0,1.083l0.001,0l0,0.177c-0.001,0.872 0.032,1.774 -0.415,2.909l0.52,0c0.413,-1.136 0.377,-2.037 0.378,-2.909l0,-0.019c0,-0.056 0,-0.108 0,-0.159l3.728,0c0.16,0 0.291,-0.131 0.291,-0.291l0,-0.31l0,-0.022l0,-0.459c0,-0.161 -0.131,-0.291 -0.291,-0.291l0,0Zm-0.192,0.773l0,0.161l-3.535,0c0,-0.178 0,-0.263 0,-0.263l-0.002,0l0,-0.231l3.536,0l0,0.333l0.001,0Z" style="fill:#159e59;fill-rule:nonzero;"/>
			</g>
			<rect x="19.682" y="519.176" width="2.86" height="0.44" style="fill:#159e59;"/>
			<rect x="19.682" y="520.159" width="2.851" height="0.44" style="fill:#159e59;"/>
		</g>
	</g>
	<g>
		<path d="M16,968c7.732,0 14,6.268 14,14c0,7.732 -6.268,14 -14,14c-7.732,0 -14,-6.268 -14,-14c0,-7.732 6.268,-14 14,-14Z" style="fill:#cdcfd0;"/>
		<path d="M16,973.6c-0.773,0 -1.4,0.627 -1.4,1.4l0,8.4c0,0.773 0.627,1.4 1.4,1.4c0.773,0 1.4,-0.627 1.4,-1.4l0,-8.4c0,-0.773 -0.627,-1.4 -1.4,-1.4Zm0,14c-0.773,0 -1.4,0.627 -1.4,1.4c0,0.773 0.627,1.4 1.4,1.4c0.773,0 1.4,-0.627 1.4,-1.4c0,-0.773 -0.627,-1.4 -1.4,-1.4Z" style="fill:#fff;"/>
	</g>
</svg>