<svg version="1.1" id="图层_1" xmlns="http://www.w3.org/2000/svg" xmlns:xlink="http://www.w3.org/1999/xlink" x="0px" y="0px"
	 viewBox="0 0 32 872" style="enable-background:new 0 0 32 872;" xml:space="preserve">
	<svg x="0px" y="0px" width="32px" height="32px" viewBox="0 0 32 32" enable-background="new 0 0 32 32" xml:space="preserve">
		<g>
			<path fill="none" d="M-171.5-276.5c0-14.359-11.641-26-26-26s-26,11.641-26,26c0,6.584,2.452,12.592,6.487,17.173
				c-0.481,1.416-0.486,2.633-0.486,2.633s9.92,8.194,20.261,8.194c9.634,0,19.739-8.196,19.739-8.196
				c0.008-1.007-0.143-1.906-0.425-2.701C-173.928-263.97-171.5-269.95-171.5-276.5z"/>
		</g>
		<g>
			<path fill="#00AE66" d="M7.949,4.31c0.429,0,1.034,0.438,1.661,1.206c1.21,1.811,1.644,2.638,1.769,3.01
				c-0.112,0.15-0.301,0.37-0.495,0.592c-0.88,0.911-1.344,2.038-1.344,3.268c0,1.965,1.14,4.02,3.591,6.467
				c2.449,2.447,4.502,3.587,6.467,3.587c1.256,0,2.409-0.486,3.336-1.408l0.191-0.191c0.15-0.152,0.339-0.341,0.482-0.471
				c0.343,0.145,1.124,0.588,2.781,1.919c0.81,0.651,1.267,1.263,1.292,1.723c0.044,0.86-1.254,2.145-2.115,2.997l-0.293,0.29
				c-0.092,0.092-0.471,0.392-1.494,0.392c-1.19,0-5.596-0.519-12.28-7.202C3.768,12.755,3.83,7.639,4.721,6.748l0.35-0.352
				C5.887,5.566,7.126,4.31,7.949,4.31L7.949,4.31 M7.949,1.999c-1.961,0-3.615,1.868-4.863,3.114
				C0.855,7.346,1.634,13.89,9.863,22.12C15.613,27.867,20.557,30,23.776,30c1.388,0,2.456-0.396,3.129-1.069
				c1.936-1.934,5.332-4.902,0.929-8.443c-2.264-1.82-3.49-2.493-4.372-2.493c-0.834,0-1.36,0.601-2.163,1.404
				c-0.482,0.48-1.045,0.733-1.701,0.733c-1.25,0-2.834-0.913-4.832-2.911c-3.05-3.048-3.576-5.14-2.178-6.535
				c1.514-1.754,1.875-2.082-1.113-6.54C10.215,2.574,9.036,1.999,7.949,1.999L7.949,1.999z"/>
		</g>
	</svg>
	<svg width="20px" height="19px" viewBox="0 0 20 19" y="52">
		<path fill="#6B7072" d="M9.38313818,16.213 L9.58763818,16.4115 C9.66013818,16.483 9.78213818,16.5675 9.95063818,16.5675 C10.1181382,16.5675 10.2406382,16.483 10.3136382,16.412 C14.5626382,12.2605 17.4431382,9 18.0166382,7.6925 C18.9701382,5.5175 18.1121382,2.921 16.1041382,1.905 C15.5736382,1.636 15.0111382,1.5 14.4321382,1.5 C13.0506382,1.5 11.7511382,2.2945 11.0351382,3.5755 L10.9551382,3.705 C10.7141382,4.052 10.3426382,4.249 9.95063818,4.249 C9.53913818,4.249 9.16413818,4.043 8.93563818,3.6945 L8.86613818,3.576 C8.15113818,2.295 6.85163818,1.5 5.46963818,1.5 C4.89013818,1.5 4.32763818,1.636 3.79713818,1.9045 C1.78963818,2.9215 0.931638178,5.5175 1.88513818,7.6925 C2.44613818,8.973 5.24213818,12.1495 9.38313818,16.213 M9.95063818,18.0675 C9.53463818,18.0675 9.13413818,17.938 8.79463818,17.6975 L8.75713818,17.6975 L8.53713818,17.484 C5.92313818,14.9275 1.40513818,10.3345 0.511138178,8.295 C-0.755861822,5.403 0.414138178,1.9365 3.11963818,0.5665 C3.86213818,0.1905 4.65263818,0 5.46963818,0 C7.25613818,0 8.93513818,0.9375 9.95063818,2.4745 C10.9666382,0.9375 12.6461382,0 14.4321382,0 C15.2486382,0 16.0396382,0.1905 16.7816382,0.567 C19.4876382,1.936 20.6581382,5.4025 19.3906382,8.295 C18.4916382,10.344 13.9731382,14.9335 11.3596382,17.487 C10.9726382,17.862 10.4731382,18.0675 9.95063818,18.0675" id="Fill-1-Copy-2"></path>
	</svg>
	<svg width="20px" height="19px" viewBox="0 0 20 19" y="90">
		<g id="Page-1" stroke="none" stroke-width="1" fill="none" fill-rule="evenodd">
			<g id="bar" transform="translate(-93.000000, -128.000000)" fill="#00AE66">
				<g id="Group-5" transform="translate(18.000000, 113.000000)">
					<path d="M84.9506382,33.0675 C84.5346382,33.0675 84.1341382,32.938 83.7946382,32.6975 L83.7571382,32.6975 L83.5371382,32.484 C80.9231382,29.9275 76.4051382,25.3345 75.5111382,23.295 C74.2441382,20.403 75.4141382,16.9365 78.1196382,15.5665 C78.8621382,15.1905 79.6526382,15 80.4696382,15 C82.2561382,15 83.9351382,15.9375 84.9506382,17.4745 C85.9666382,15.9375 87.6461382,15 89.4321382,15 C90.2486382,15 91.0396382,15.1905 91.7816382,15.567 C94.4876382,16.936 95.6581382,20.4025 94.3906382,23.295 C93.4916382,25.344 88.9731382,29.9335 86.3596382,32.487 C85.9726382,32.862 85.4731382,33.0675 84.9506382,33.0675 Z" id="Fill-1"></path>
				</g>
			</g>
		</g>
	</svg>
	<svg width="20px" height="19px" viewBox="0 0 20 19" y="120">
		 <defs>
        <polygon id="path-1" points="0.0003375 17.8823529 17.7820875 17.8823529 17.7820875 0.216152941 0.0003375 0.216152941"></polygon>
    </defs>
    <g id="Page-1" stroke="none" stroke-width="1" fill="none" fill-rule="evenodd">
        <g transform="translate(0.000000, -1.000000)">
            <path d="M16.1238375,3.29191765 L16.1238375,7.91227059 L17.7820875,7.91227059 L17.7820875,3.29191765 C17.7820875,2.09156471 16.7920875,1.11809412 15.5714625,1.11809412 L10.9645875,1.11809412 L10.9645875,2.74874118 L15.5714625,2.74874118 C15.8763375,2.74874118 16.1238375,2.99238824 16.1238375,3.29191765" id="Fill-1" fill="#6B7072"></path>
            <g id="Group-5" transform="translate(0.000000, 0.901382)">
                <mask id="mask-2" fill="white">
                    <use xlink:href="#path-1"></use>
                </mask>
                <g id="Clip-4"></g>
                <path d="M16.1238375,11.0875059 L16.1238375,15.7078588 C16.1238375,16.0073882 15.8763375,16.2510353 15.5714625,16.2510353 L2.2109625,16.2510353 C1.9060875,16.2510353 1.6585875,16.0073882 1.6585875,15.7078588 L1.6585875,2.38997647 C1.6585875,2.09044706 1.9060875,1.8468 2.2109625,1.8468 L6.8178375,1.8468 L6.8178375,0.216152941 L2.2109625,0.216152941 C0.9903375,0.216152941 0.0003375,1.18962353 0.0003375,2.38997647 L0.0003375,15.7078588 C0.0003375,16.9093294 0.9903375,17.8828 2.2109625,17.8828 L15.5714625,17.8828 C16.7920875,17.8828 17.7820875,16.9093294 17.7820875,15.7078588 L17.7820875,11.0875059 L16.1238375,11.0875059 Z" id="Fill-3" fill="#6B7072" mask="url(#mask-2)"></path>
            </g>
            <polygon id="Fill-6" fill="#6B7072" points="17.1072 2.7816 6.61545 13.2047765 5.43195 12.0301294 15.924825 1.60695294"></polygon>
        </g>
    </g>
	</svg>
	<svg width="32" height="32" viewBox="0 0 32 32" y="150"><path fill="#fff" d="M30 16c0 7.732-6.268 14-14 14S2 23.732 2 16 8.268 2 16 2s14 6.268 14 14z"/><path fill="#e5e5e5" d="M16 30.5C8.005 30.5 1.5 23.995 1.5 16S8.005 1.5 16 1.5 30.5 8.005 30.5 16 23.995 30.5 16 30.5zm0-28C8.556 2.5 2.5 8.556 2.5 16S8.556 29.5 16 29.5 29.5 23.444 29.5 16 23.444 2.5 16 2.5z"/><path fill="#222" d="M10.905 10.905a.518.518 0 0 1 .745 0l9.186 9.412c.206.211.206.552 0 .763s-.539.211-.745 0l-9.186-9.412a.548.548 0 0 1 0-.763z"/><path fill="#222" d="M11.153 20.317l9.186-9.412c.206-.211.539-.211.745 0s.206.552 0 .763l-9.186 9.412c-.206.211-.539.211-.745 0s-.205-.553 0-.763z"/></svg>
</svg>